<?xml version="1.0" encoding="utf-8"?>
<!-- Generator: Adobe Illustrator 16.0.0, SVG Export Plug-In . SVG Version: 6.00 Build 0)  -->
<!DOCTYPE svg PUBLIC "-//W3C//DTD SVG 1.1//EN" "http://www.w3.org/Graphics/SVG/1.1/DTD/svg11.dtd">
<svg version="1.1" id="logo_geometry" xmlns="http://www.w3.org/2000/svg" xmlns:xlink="http://www.w3.org/1999/xlink" x="0px" y="0px"
	 width="121.969px" height="116.556px" viewBox="0 0 121.969 116.556" enable-background="new 0 0 121.969 116.556"
	 xml:space="preserve">
<polyline fill="none" stroke="#3D3E3E" stroke-miterlimit="10" points="39.704,22.122 72.439,34.918 81.958,21.43 72.439,34.918
	104.235,57.355 76.386,78.915 83.602,94.31 76.386,78.915 74.771,58.337 72.439,34.918 36.491,61.068 39.704,22.122 36.491,61.068
	19.974,59.132 "/>
<g>
	<defs>
		<rect id="SVGID_1_" x="-71.263" y="-21.5" width="270" height="162"/>
	</defs>
	<clipPath id="SVGID_2_">
		<use xlink:href="#SVGID_1_"  overflow="visible"/>
	</clipPath>
	<path clip-path="url(#SVGID_2_)" fill="none" stroke="#33212D" stroke-width="1.5" stroke-miterlimit="10" d="M103.717,56.988
		L83.785,94.052l-41.853,1.182L19.844,59.041c0,0,20.244-37.231,19.84-36.933c-0.405,0.297,42.204-1.13,42.204-1.13L103.717,56.988z
		"/>
	<polygon clip-path="url(#SVGID_2_)" fill="none" stroke="#33212D" stroke-width="1.5" stroke-miterlimit="10" points="
		87.312,55.717 83.785,94.051 51.51,81.386 	"/>
	<polyline clip-path="url(#SVGID_2_)" fill="none" stroke="#33212D" stroke-width="1.5" stroke-miterlimit="10" points="
		39.684,22.108 47.213,37.335 51.51,81.385 41.933,95.233 51.51,81.385 19.844,59.041 47.213,37.335 87.312,55.717 47.213,37.335
		81.888,20.979 87.312,55.717 103.717,56.988 	"/>
	<polygon clip-path="url(#SVGID_2_)" fill="none" stroke="#3D3E3E" stroke-miterlimit="10" points="76.386,78.915 41.843,95.085
		36.492,61.068 	"/>
	<g clip-path="url(#SVGID_2_)">
		<defs>
			<rect id="SVGID_3_" x="35.093" y="59.543" width="2.797" height="2.797"/>
		</defs>
		<clipPath id="SVGID_4_">
			<use xlink:href="#SVGID_3_"  overflow="visible"/>
		</clipPath>
		<g clip-path="url(#SVGID_4_)">
			<defs>
				<rect id="SVGID_5_" x="35.093" y="59.543" width="2.797" height="2.797"/>
			</defs>
			<clipPath id="SVGID_6_">
				<use xlink:href="#SVGID_5_"  overflow="visible"/>
			</clipPath>
			<path clip-path="url(#SVGID_6_)" fill="#3D3E3E" d="M36.495,59.543c0.77,0,1.396,0.626,1.396,1.402
				c0,0.77-0.626,1.395-1.396,1.395c-0.777,0-1.402-0.625-1.402-1.395C35.093,60.169,35.718,59.543,36.495,59.543"/>
		</g>
	</g>
	<g clip-path="url(#SVGID_2_)">
		<defs>
			<rect id="SVGID_7_" x="70.981" y="33.535" width="2.922" height="2.923"/>
		</defs>
		<clipPath id="SVGID_8_">
			<use xlink:href="#SVGID_7_"  overflow="visible"/>
		</clipPath>
		<g clip-path="url(#SVGID_8_)">
			<defs>
				<rect id="SVGID_9_" x="70.981" y="33.535" width="2.922" height="2.923"/>
			</defs>
			<clipPath id="SVGID_10_">
				<use xlink:href="#SVGID_9_"  overflow="visible"/>
			</clipPath>
			<path clip-path="url(#SVGID_10_)" fill="#3D3E3E" d="M72.445,33.535c0.804,0,1.458,0.654,1.458,1.465
				c0,0.805-0.654,1.457-1.458,1.457c-0.811,0-1.464-0.652-1.464-1.457C70.981,34.189,71.635,33.535,72.445,33.535"/>
		</g>
	</g>
	<g clip-path="url(#SVGID_2_)">
		<defs>
			<rect id="SVGID_11_" x="75.356" y="77.756" width="2.381" height="2.381"/>
		</defs>
		<clipPath id="SVGID_12_">
			<use xlink:href="#SVGID_11_"  overflow="visible"/>
		</clipPath>
		<g clip-path="url(#SVGID_12_)">
			<defs>
				<rect id="SVGID_13_" x="75.356" y="77.756" width="2.381" height="2.381"/>
			</defs>
			<clipPath id="SVGID_14_">
				<use xlink:href="#SVGID_13_"  overflow="visible"/>
			</clipPath>
			<path clip-path="url(#SVGID_14_)" fill="#3D3E3E" d="M76.549,77.756c0.655,0,1.188,0.532,1.188,1.193
				c0,0.654-0.533,1.188-1.188,1.188c-0.66,0-1.192-0.533-1.192-1.188C75.356,78.288,75.889,77.756,76.549,77.756"/>
		</g>
	</g>
	<g clip-path="url(#SVGID_2_)">
		<defs>
			<rect id="SVGID_15_" x="40.48" y="93.606" width="2.905" height="2.816"/>
		</defs>
		<clipPath id="SVGID_16_">
			<use xlink:href="#SVGID_15_"  overflow="visible"/>
		</clipPath>
		<g clip-path="url(#SVGID_16_)">
			<defs>
				<rect id="SVGID_17_" x="40.48" y="93.606" width="2.905" height="2.816"/>
			</defs>
			<clipPath id="SVGID_18_">
				<use xlink:href="#SVGID_17_"  overflow="visible"/>
			</clipPath>
			<path clip-path="url(#SVGID_18_)" fill="#33212D" d="M41.936,93.606c0.8,0,1.449,0.63,1.449,1.412
				c0,0.774-0.649,1.404-1.449,1.404c-0.806,0-1.456-0.63-1.456-1.404C40.479,94.236,41.13,93.606,41.936,93.606"/>
		</g>
	</g>
	<g clip-path="url(#SVGID_2_)">
		<defs>
			<rect id="SVGID_19_" x="82.27" y="92.393" width="2.948" height="2.947"/>
		</defs>
		<clipPath id="SVGID_20_">
			<use xlink:href="#SVGID_19_"  overflow="visible"/>
		</clipPath>
		<g clip-path="url(#SVGID_20_)">
			<defs>
				<rect id="SVGID_21_" x="82.27" y="92.393" width="2.948" height="2.947"/>
			</defs>
			<clipPath id="SVGID_22_">
				<use xlink:href="#SVGID_21_"  overflow="visible"/>
			</clipPath>
			<path clip-path="url(#SVGID_22_)" fill="#33212D" d="M83.746,92.393c0.812,0,1.47,0.658,1.47,1.477c0,0.812-0.658,1.47-1.47,1.47
				c-0.817,0-1.477-0.658-1.477-1.47C82.27,93.051,82.929,92.393,83.746,92.393"/>
		</g>
	</g>
	<g clip-path="url(#SVGID_2_)">
		<defs>
			<rect id="SVGID_23_" x="102.211" y="55.578" width="2.948" height="2.947"/>
		</defs>
		<clipPath id="SVGID_24_">
			<use xlink:href="#SVGID_23_"  overflow="visible"/>
		</clipPath>
		<g clip-path="url(#SVGID_24_)">
			<defs>
				<rect id="SVGID_25_" x="102.211" y="55.578" width="2.948" height="2.947"/>
			</defs>
			<clipPath id="SVGID_26_">
				<use xlink:href="#SVGID_25_"  overflow="visible"/>
			</clipPath>
			<path clip-path="url(#SVGID_26_)" fill="#33212D" d="M103.688,55.578c0.811,0,1.471,0.659,1.471,1.477
				c0,0.812-0.66,1.471-1.471,1.471c-0.818,0-1.478-0.659-1.478-1.471C102.211,56.237,102.87,55.578,103.688,55.578"/>
		</g>
	</g>
	<g clip-path="url(#SVGID_2_)">
		<defs>
			<rect id="SVGID_27_" x="80.589" y="19.43" width="2.947" height="2.947"/>
		</defs>
		<clipPath id="SVGID_28_">
			<use xlink:href="#SVGID_27_"  overflow="visible"/>
		</clipPath>
		<g clip-path="url(#SVGID_28_)">
			<defs>
				<rect id="SVGID_29_" x="80.589" y="19.43" width="2.947" height="2.947"/>
			</defs>
			<clipPath id="SVGID_30_">
				<use xlink:href="#SVGID_29_"  overflow="visible"/>
			</clipPath>
			<path clip-path="url(#SVGID_30_)" fill="#33212D" d="M82.066,19.43c0.811,0,1.47,0.659,1.47,1.477c0,0.811-0.659,1.47-1.47,1.47
				c-0.818,0-1.478-0.659-1.478-1.47C80.589,20.089,81.248,19.43,82.066,19.43"/>
		</g>
	</g>
	<g clip-path="url(#SVGID_2_)">
		<defs>
			<rect id="SVGID_31_" x="38.118" y="20.686" width="2.947" height="2.947"/>
		</defs>
		<clipPath id="SVGID_32_">
			<use xlink:href="#SVGID_31_"  overflow="visible"/>
		</clipPath>
		<g clip-path="url(#SVGID_32_)">
			<defs>
				<rect id="SVGID_33_" x="38.118" y="20.686" width="2.947" height="2.947"/>
			</defs>
			<clipPath id="SVGID_34_">
				<use xlink:href="#SVGID_33_"  overflow="visible"/>
			</clipPath>
			<path clip-path="url(#SVGID_34_)" fill="#33212D" d="M39.595,20.686c0.811,0,1.47,0.659,1.47,1.477c0,0.811-0.659,1.47-1.47,1.47
				c-0.818,0-1.477-0.659-1.477-1.47C38.118,21.345,38.776,20.686,39.595,20.686"/>
		</g>
	</g>
	<g clip-path="url(#SVGID_2_)">
		<defs>
			<rect id="SVGID_35_" x="18.579" y="57.504" width="2.947" height="2.947"/>
		</defs>
		<clipPath id="SVGID_36_">
			<use xlink:href="#SVGID_35_"  overflow="visible"/>
		</clipPath>
		<g clip-path="url(#SVGID_36_)">
			<defs>
				<rect id="SVGID_37_" x="18.579" y="57.504" width="2.947" height="2.947"/>
			</defs>
			<clipPath id="SVGID_38_">
				<use xlink:href="#SVGID_37_"  overflow="visible"/>
			</clipPath>
			<path clip-path="url(#SVGID_38_)" fill="#33212D" d="M20.056,57.504c0.812,0,1.471,0.66,1.471,1.478
				c0,0.812-0.659,1.47-1.471,1.47c-0.818,0-1.477-0.658-1.477-1.47C18.579,58.164,19.237,57.504,20.056,57.504"/>
		</g>
	</g>
	<g clip-path="url(#SVGID_2_)">
		<defs>
			<rect id="SVGID_39_" x="86.13" y="54.119" width="3.25" height="3.249"/>
		</defs>
		<clipPath id="SVGID_40_">
			<use xlink:href="#SVGID_39_"  overflow="visible"/>
		</clipPath>
		<g clip-path="url(#SVGID_40_)">
			<defs>
				<rect id="SVGID_41_" x="86.13" y="54.119" width="3.25" height="3.249"/>
			</defs>
			<clipPath id="SVGID_42_">
				<use xlink:href="#SVGID_41_"  overflow="visible"/>
			</clipPath>
			<path clip-path="url(#SVGID_42_)" fill="#33212D" d="M87.759,54.119c0.894,0,1.621,0.727,1.621,1.628
				c0,0.896-0.728,1.621-1.621,1.621c-0.901,0-1.628-0.726-1.628-1.621C86.131,54.846,86.857,54.119,87.759,54.119"/>
		</g>
	</g>
	<g clip-path="url(#SVGID_2_)">
		<defs>
			<rect id="SVGID_43_" x="49.786" y="79.934" width="3.249" height="3.25"/>
		</defs>
		<clipPath id="SVGID_44_">
			<use xlink:href="#SVGID_43_"  overflow="visible"/>
		</clipPath>
		<g clip-path="url(#SVGID_44_)">
			<defs>
				<rect id="SVGID_45_" x="49.786" y="79.934" width="3.249" height="3.25"/>
			</defs>
			<clipPath id="SVGID_46_">
				<use xlink:href="#SVGID_45_"  overflow="visible"/>
			</clipPath>
			<path clip-path="url(#SVGID_46_)" fill="#33212D" d="M51.414,79.934c0.894,0,1.621,0.728,1.621,1.628
				c0,0.896-0.728,1.621-1.621,1.621c-0.901,0-1.628-0.726-1.628-1.621C49.786,80.661,50.513,79.934,51.414,79.934"/>
		</g>
	</g>
	<g clip-path="url(#SVGID_2_)">
		<defs>
			<rect id="SVGID_47_" x="45.395" y="35.172" width="3.28" height="3.281"/>
		</defs>
		<clipPath id="SVGID_48_">
			<use xlink:href="#SVGID_47_"  overflow="visible"/>
		</clipPath>
		<g clip-path="url(#SVGID_48_)">
			<defs>
				<rect id="SVGID_49_" x="45.395" y="35.172" width="3.28" height="3.281"/>
			</defs>
			<clipPath id="SVGID_50_">
				<use xlink:href="#SVGID_49_"  overflow="visible"/>
			</clipPath>
			<path clip-path="url(#SVGID_50_)" fill="#33212D" d="M47.038,35.172c0.902,0,1.637,0.734,1.637,1.645
				c0,0.902-0.734,1.637-1.637,1.637c-0.91,0-1.645-0.734-1.645-1.637C45.394,35.906,46.128,35.172,47.038,35.172"/>
		</g>
	</g>
</g>
</svg>
