<svg width="126" height="66" viewBox="0 0 126 66" xmlns="http://www.w3.org/2000/svg"><title>ic_Logo Updated Black@3x</title><g fill="none" fill-rule="evenodd"><path d="M54.922 11.734H46.05a1.21 1.21 0 0 1-1.206-1.211V1.61c0-.67.54-1.212 1.206-1.212h8.872a1.21 1.21 0 0 1 1.206 1.212v8.913c0 .669-.54 1.211-1.206 1.211" fill="#3466FF"/><path d="M67.908 11.734h-8.815a1.237 1.237 0 0 1-1.234-1.24V1.638c0-.685.552-1.24 1.234-1.24h8.815c.682 0 1.235.555 1.235 1.24v8.856c0 .685-.553 1.24-1.235 1.24" fill="#02FFCC"/><path d="M81.048 11.734h-8.877a1.206 1.206 0 0 1-1.203-1.208v-8.92c0-.667.538-1.208 1.203-1.208h8.877c.665 0 1.204.541 1.204 1.208v8.92c0 .667-.54 1.208-1.204 1.208" fill="#01FFFD"/><path d="M54.91 24.716h-8.849a1.22 1.22 0 0 1-1.217-1.223v-8.891a1.22 1.22 0 0 1 1.217-1.223h8.85a1.22 1.22 0 0 1 1.217 1.223v8.891a1.22 1.22 0 0 1-1.217 1.223" fill="#FF3201"/><path d="M67.932 24.716H59.07c-.669 0-1.211-.545-1.211-1.217v-8.903c0-.672.542-1.217 1.21-1.217h8.863c.669 0 1.21.545 1.21 1.217v8.903c0 .672-.541 1.217-1.21 1.217" fill="#FFFE00"/><path d="M81.067 24.716h-8.914a1.187 1.187 0 0 1-1.185-1.19v-8.957c0-.657.53-1.19 1.185-1.19h8.914c.654 0 1.184.533 1.184 1.19v8.957c0 .657-.53 1.19-1.184 1.19" fill="#E9EFFF"/><path d="M54.927 37.697h-8.881c-.664 0-1.202-.54-1.202-1.207v-8.922c0-.667.538-1.207 1.202-1.207h8.88c.664 0 1.202.54 1.202 1.207v8.922c0 .667-.538 1.207-1.201 1.207" fill="#65FF32"/><path d="M67.943 37.697h-8.884c-.663 0-1.2-.54-1.2-1.205v-8.926c0-.666.537-1.205 1.2-1.205h8.884c.662 0 1.2.54 1.2 1.205v8.926c0 .666-.538 1.205-1.2 1.205" fill="#FF9830"/><path d="M81.069 37.697H72.15a1.186 1.186 0 0 1-1.182-1.188v-8.96c0-.656.53-1.188 1.182-1.188h8.919c.653 0 1.182.532 1.182 1.188v8.96c0 .656-.53 1.188-1.182 1.188" fill="#FF31CD"/><g stroke="#FFF" stroke-width=".2" fill="#202020"><path d="M7.083 52.635c.054.05.082.111.082.184a.247.247 0 0 1-.076.192.281.281 0 0 1-.197.068H3.855v8.786a.263.263 0 0 1-.082.192.261.261 0 0 1-.19.082.255.255 0 0 1-.198-.082.276.276 0 0 1-.075-.192v-8.786H.272a.271.271 0 0 1-.19-.075.24.24 0 0 1-.082-.185c0-.073.027-.134.082-.184a.274.274 0 0 1 .19-.076h6.62c.073 0 .136.026.19.076M13.266 55.974c.418.497.627 1.129.627 1.895v3.996a.263.263 0 0 1-.082.192.26.26 0 0 1-.19.082.254.254 0 0 1-.198-.082.275.275 0 0 1-.075-.192v-3.996c0-.63-.154-1.14-.463-1.533-.309-.392-.78-.588-1.417-.588-.39 0-.774.096-1.15.287a2.514 2.514 0 0 0-.92.78c-.236.329-.354.68-.354 1.054v3.996a.263.263 0 0 1-.082.192.26.26 0 0 1-.19.082.254.254 0 0 1-.198-.082.275.275 0 0 1-.075-.192v-9.58c0-.072.027-.136.082-.19a.26.26 0 0 1 .19-.083c.082 0 .148.027.198.082.05.055.075.119.075.192v4.324a2.995 2.995 0 0 1 1.055-.992c.45-.26.907-.39 1.37-.39.78 0 1.38.248 1.797.746M17.455 55.905c-.35.178-.659.443-.926.794-.268.351-.448.778-.538 1.28h5.012v-.124a2.332 2.332 0 0 0-.443-1.197 2.455 2.455 0 0 0-.926-.76 2.672 2.672 0 0 0-1.15-.26c-.337 0-.68.09-1.03.267m3.971 4.667c.045.05.068.107.068.17a.256.256 0 0 1-.054.165c-.3.402-.672.73-1.117.985a2.827 2.827 0 0 1-1.43.383c-.681 0-1.285-.145-1.812-.437a3.09 3.09 0 0 1-1.232-1.246c-.296-.538-.443-1.163-.443-1.874 0-.73.143-1.371.429-1.923.286-.552.665-.974 1.137-1.266a2.824 2.824 0 0 1 1.512-.438c.536 0 1.033.116 1.491.35.459.232.834.58 1.124 1.046.29.465.445 1.04.464 1.724 0 .073-.028.14-.082.199a.25.25 0 0 1-.191.089h-5.353v.177c0 .566.114 1.084.34 1.554.227.47.563.841 1.008 1.115.445.274.981.41 1.608.41.436 0 .846-.106 1.232-.321.386-.214.688-.486.906-.814a.284.284 0 0 1 .232-.124c.063 0 .118.026.163.076M31.708 56.726c.364-.405.545-.923.545-1.553 0-.63-.179-1.131-.538-1.505-.359-.374-.847-.561-1.464-.561h-2.97v4.228h2.97c.608 0 1.094-.203 1.457-.609m.41-3.441c.471.483.707 1.113.707 1.888 0 .511-.107.974-.32 1.39a2.366 2.366 0 0 1-.906.97c-.39.233-.84.35-1.348.35h-2.97v3.982c0 .073-.029.137-.088.192a.283.283 0 0 1-.197.082.277.277 0 0 1-.205-.082.263.263 0 0 1-.081-.192v-9.032c0-.073.027-.137.081-.192a.261.261 0 0 1 .191-.082h3.27c.77 0 1.393.242 1.865.726M38.001 55.406a.31.31 0 0 1-.068.205.22.22 0 0 1-.177.082.8.8 0 0 1-.197-.061.905.905 0 0 0-.334-.062c-.373 0-.745.148-1.117.445-.373.296-.677.67-.913 1.122-.236.452-.354.887-.354 1.307v3.42a.263.263 0 0 1-.082.193.26.26 0 0 1-.19.082.254.254 0 0 1-.198-.082.275.275 0 0 1-.075-.192v-6.281c0-.073.028-.137.082-.192a.26.26 0 0 1 .19-.082c.083 0 .148.027.198.082.05.055.075.119.075.192v1.45a3.236 3.236 0 0 1 .974-1.382 2.43 2.43 0 0 1 1.56-.561c.417 0 .626.105.626.315M44.07 57.116a2.792 2.792 0 0 0-1.002-1.101 2.652 2.652 0 0 0-1.444-.404 2.66 2.66 0 0 0-1.437.404 2.82 2.82 0 0 0-1.014 1.101c-.245.466-.368.99-.368 1.574 0 .575.123 1.095.368 1.56a2.82 2.82 0 0 0 1.014 1.102c.432.269.91.404 1.437.404.536 0 1.017-.133 1.444-.397.427-.265.76-.632 1.001-1.102.24-.47.361-.992.361-1.567 0-.584-.12-1.108-.36-1.574m.47 3.4a3.315 3.315 0 0 1-1.206 1.287 3.204 3.204 0 0 1-1.71.472 3.202 3.202 0 0 1-1.709-.472 3.348 3.348 0 0 1-1.212-1.293 3.77 3.77 0 0 1-.443-1.82c0-.675.148-1.286.443-1.834a3.366 3.366 0 0 1 1.205-1.293 3.192 3.192 0 0 1 1.716-.472c.627 0 1.197.157 1.71.472.513.315.914.746 1.205 1.293.29.548.436 1.159.436 1.834a3.81 3.81 0 0 1-.436 1.827M46.01 60.784c0-.064.036-.123.11-.178a.223.223 0 0 1 .162-.069c.091 0 .164.037.218.11.527.758 1.263 1.136 2.207 1.136.481 0 .903-.12 1.267-.363.363-.241.544-.568.544-.978 0-.42-.158-.734-.476-.945-.318-.21-.754-.383-1.308-.52-.735-.182-1.314-.426-1.736-.732-.422-.305-.634-.736-.634-1.293 0-.538.213-.983.64-1.334.427-.351.976-.527 1.648-.527.373 0 .743.073 1.11.219.368.146.702.379 1.002.698a.247.247 0 0 1 .095.192.302.302 0 0 1-.095.219.421.421 0 0 1-.177.054.205.205 0 0 1-.164-.082c-.472-.52-1.08-.78-1.825-.78-.481 0-.888.119-1.219.356-.332.237-.497.566-.497.985.027.393.206.696.538.91.331.215.82.404 1.464.568.463.119.847.249 1.151.39.304.142.547.34.729.595.181.256.272.589.272 1 0 .574-.22 1.028-.66 1.361-.441.333-1.015.5-1.724.5-1.035 0-1.884-.411-2.546-1.232a.508.508 0 0 1-.096-.26M57.03 61.318c.399-.256.714-.612.946-1.068.231-.456.347-.967.347-1.533 0-.565-.116-1.074-.347-1.526a2.679 2.679 0 0 0-.947-1.06c-.4-.255-.85-.383-1.348-.383-.509 0-.965.125-1.37.376a2.52 2.52 0 0 0-.94 1.054c-.222.451-.333.965-.333 1.54 0 .574.111 1.087.334 1.539A2.507 2.507 0 0 0 55.68 61.7c.499 0 .948-.128 1.348-.383m.3-5.639c.481.302.858.717 1.13 1.246.273.529.409 1.127.409 1.792a3.82 3.82 0 0 1-.416 1.786 3.211 3.211 0 0 1-1.137 1.26 2.936 2.936 0 0 1-1.607.458 2.847 2.847 0 0 1-1.498-.41 3.19 3.19 0 0 1-1.117-1.164v3.955a.277.277 0 0 1-.075.191.255.255 0 0 1-.198.083.261.261 0 0 1-.19-.083.263.263 0 0 1-.082-.191v-9.1c0-.073.025-.137.075-.192a.254.254 0 0 1 .197-.082c.082 0 .148.027.198.082.05.055.075.119.075.192v1.259c.272-.52.635-.906 1.09-1.157a3.1 3.1 0 0 1 1.525-.376c.6 0 1.14.15 1.62.451M61.953 55.905c-.35.178-.659.443-.926.794-.268.351-.448.778-.538 1.28H65.5v-.124a2.332 2.332 0 0 0-.442-1.197 2.455 2.455 0 0 0-.927-.76 2.672 2.672 0 0 0-1.15-.26c-.337 0-.68.09-1.029.267m3.97 4.667c.046.05.069.107.069.17a.256.256 0 0 1-.055.165c-.3.402-.672.73-1.117.985a2.827 2.827 0 0 1-1.43.383c-.681 0-1.285-.145-1.812-.437a3.09 3.09 0 0 1-1.232-1.246c-.296-.538-.443-1.163-.443-1.874 0-.73.143-1.371.43-1.923.285-.552.664-.974 1.137-1.266a2.824 2.824 0 0 1 1.511-.438c.536 0 1.033.116 1.492.35.458.232.833.58 1.123 1.046.291.465.445 1.04.464 1.724 0 .073-.028.14-.082.199a.25.25 0 0 1-.19.089h-5.354v.177c0 .566.114 1.084.34 1.554.228.47.564.841 1.009 1.115.444.274.98.41 1.607.41.436 0 .847-.106 1.233-.321.385-.214.687-.486.905-.814a.284.284 0 0 1 .232-.124c.063 0 .118.026.163.076M71.276 55.406a.31.31 0 0 1-.068.205.22.22 0 0 1-.177.082.8.8 0 0 1-.198-.061.905.905 0 0 0-.333-.062c-.373 0-.745.148-1.117.445-.373.296-.677.67-.913 1.122-.236.452-.354.887-.354 1.307v3.42a.263.263 0 0 1-.082.193.26.26 0 0 1-.19.082.254.254 0 0 1-.198-.082.275.275 0 0 1-.075-.192v-6.281c0-.073.027-.137.082-.192a.26.26 0 0 1 .19-.082c.082 0 .148.027.198.082.05.055.075.119.075.192v1.45a3.236 3.236 0 0 1 .974-1.382 2.43 2.43 0 0 1 1.56-.561c.417 0 .626.105.626.315M77.344 57.116a2.792 2.792 0 0 0-1-1.101 2.652 2.652 0 0 0-1.445-.404 2.66 2.66 0 0 0-1.437.404 2.82 2.82 0 0 0-1.014 1.101c-.246.466-.368.99-.368 1.574 0 .575.122 1.095.368 1.56a2.82 2.82 0 0 0 1.014 1.102c.432.269.91.404 1.437.404.536 0 1.017-.133 1.444-.397.427-.265.76-.632 1.001-1.102.24-.47.361-.992.361-1.567 0-.584-.12-1.108-.36-1.574m.47 3.4a3.315 3.315 0 0 1-1.206 1.287 3.204 3.204 0 0 1-1.71.472 3.202 3.202 0 0 1-1.709-.472 3.348 3.348 0 0 1-1.212-1.293 3.77 3.77 0 0 1-.443-1.82c0-.675.147-1.286.443-1.834a3.366 3.366 0 0 1 1.205-1.293 3.192 3.192 0 0 1 1.716-.472c.627 0 1.196.157 1.71.472.513.315.914.746 1.205 1.293.29.548.436 1.159.436 1.834a3.81 3.81 0 0 1-.436 1.827M85.094 55.392c.05.055.075.119.075.192v3.982c0 .867-.243 1.526-.728 1.978-.486.45-1.147.677-1.982.677-.836 0-1.494-.226-1.975-.677-.482-.452-.722-1.111-.722-1.978v-3.982c0-.073.027-.137.081-.192a.26.26 0 0 1 .191-.082c.082 0 .148.027.198.082.05.055.075.119.075.192v3.982c0 .684.19 1.211.572 1.58.381.37.908.555 1.58.555.68 0 1.212-.185 1.593-.555.381-.369.572-.896.572-1.58v-3.982c0-.073.025-.137.075-.192a.254.254 0 0 1 .198-.082c.081 0 .147.027.197.082M86.681 60.784c0-.064.036-.123.109-.178a.223.223 0 0 1 .163-.069c.091 0 .164.037.218.11.527.758 1.262 1.136 2.207 1.136.481 0 .903-.12 1.266-.363.364-.241.545-.568.545-.978 0-.42-.158-.734-.476-.945-.318-.21-.754-.383-1.308-.52-.735-.182-1.314-.426-1.736-.732-.423-.305-.634-.736-.634-1.293 0-.538.213-.983.64-1.334.427-.351.976-.527 1.648-.527.373 0 .743.073 1.11.219.368.146.702.379 1.002.698a.247.247 0 0 1 .095.192.302.302 0 0 1-.095.219.421.421 0 0 1-.177.054.205.205 0 0 1-.164-.082c-.472-.52-1.08-.78-1.825-.78-.482 0-.888.119-1.22.356-.33.237-.496.566-.496.985.027.393.206.696.538.91.331.215.82.404 1.464.568.463.119.846.249 1.15.39.305.142.548.34.73.595.181.256.272.589.272 1 0 .574-.22 1.028-.66 1.361-.441.333-1.015.5-1.724.5-1.035 0-1.884-.411-2.547-1.232a.508.508 0 0 1-.095-.26M97.536 61.927c-.5-.233-.994-.596-1.484-1.089a.278.278 0 0 1-.082-.205c0-.073.032-.143.095-.212.064-.068.132-.102.205-.102.081 0 .158.04.231.123.354.42.774.739 1.26.958a3.69 3.69 0 0 0 1.533.328c.699 0 1.275-.169 1.73-.506.453-.338.68-.785.68-1.341-.009-.438-.127-.799-.354-1.081a2.545 2.545 0 0 0-.837-.678 12.907 12.907 0 0 0-1.356-.568 14.086 14.086 0 0 1-1.464-.63 2.615 2.615 0 0 1-.899-.78c-.25-.337-.375-.78-.375-1.327 0-.447.123-.853.368-1.218.245-.364.595-.652 1.049-.862.454-.21.98-.314 1.58-.314.536 0 1.044.097 1.526.294.48.196.862.472 1.144.828.09.128.136.223.136.287 0 .073-.034.14-.102.198a.334.334 0 0 1-.225.09.22.22 0 0 1-.177-.083 2.686 2.686 0 0 0-.98-.78c-.4-.191-.84-.287-1.322-.287-.69 0-1.264.164-1.723.493a1.563 1.563 0 0 0-.688 1.34c0 .393.111.726.334 1 .222.273.502.495.838.663.335.17.753.345 1.253.527.635.228 1.14.438 1.512.63.372.191.69.47.953.835s.395.848.395 1.45c0 .42-.123.812-.368 1.177s-.597.655-1.055.869c-.459.214-.983.321-1.573.321-.673 0-1.258-.116-1.758-.348M108.61 55.974c.417.497.626 1.129.626 1.895v3.996a.263.263 0 0 1-.081.192.26.26 0 0 1-.191.082.254.254 0 0 1-.198-.082.275.275 0 0 1-.074-.192v-3.996c0-.63-.155-1.14-.464-1.533-.308-.392-.78-.588-1.416-.588-.39 0-.774.096-1.151.287a2.514 2.514 0 0 0-.92.78c-.236.329-.353.68-.353 1.054v3.996a.263.263 0 0 1-.082.192.26.26 0 0 1-.19.082.254.254 0 0 1-.198-.082.275.275 0 0 1-.075-.192v-9.58c0-.072.027-.136.081-.19a.26.26 0 0 1 .191-.083c.082 0 .148.027.197.082.05.055.076.119.076.192v4.324a2.995 2.995 0 0 1 1.055-.992c.45-.26.906-.39 1.369-.39.78 0 1.38.248 1.798.746M116.558 57.116a2.792 2.792 0 0 0-1.002-1.101 2.652 2.652 0 0 0-1.443-.404 2.66 2.66 0 0 0-1.437.404 2.82 2.82 0 0 0-1.015 1.101c-.245.466-.368.99-.368 1.574 0 .575.123 1.095.368 1.56a2.82 2.82 0 0 0 1.015 1.102c.43.269.91.404 1.437.404.535 0 1.016-.133 1.443-.397.427-.265.76-.632 1.002-1.102.24-.47.36-.992.36-1.567 0-.584-.12-1.108-.36-1.574m.47 3.4a3.315 3.315 0 0 1-1.206 1.287 3.204 3.204 0 0 1-1.71.472 3.202 3.202 0 0 1-1.709-.472 3.348 3.348 0 0 1-1.212-1.293 3.77 3.77 0 0 1-.443-1.82c0-.675.148-1.286.443-1.834a3.366 3.366 0 0 1 1.205-1.293 3.192 3.192 0 0 1 1.717-.472c.626 0 1.196.157 1.709.472.513.315.915.746 1.206 1.293.29.548.435 1.159.435 1.834a3.81 3.81 0 0 1-.435 1.827M123.456 61.318c.4-.256.715-.612.947-1.068.232-.456.347-.967.347-1.533 0-.565-.115-1.074-.347-1.526a2.679 2.679 0 0 0-.947-1.06c-.4-.255-.849-.383-1.348-.383-.509 0-.965.125-1.37.376a2.52 2.52 0 0 0-.939 1.054c-.223.451-.334.965-.334 1.54 0 .574.111 1.087.334 1.539a2.507 2.507 0 0 0 2.309 1.444c.499 0 .948-.128 1.348-.383m.3-5.639c.481.302.858.717 1.13 1.246.273.529.409 1.127.409 1.792a3.82 3.82 0 0 1-.415 1.786 3.211 3.211 0 0 1-1.138 1.26 2.936 2.936 0 0 1-1.607.458 2.847 2.847 0 0 1-1.498-.41 3.19 3.19 0 0 1-1.117-1.164v3.955a.277.277 0 0 1-.075.191.255.255 0 0 1-.197.083.261.261 0 0 1-.191-.083.263.263 0 0 1-.082-.191v-9.1c0-.073.025-.137.075-.192a.254.254 0 0 1 .198-.082c.081 0 .147.027.197.082.05.055.075.119.075.192v1.259c.272-.52.635-.906 1.09-1.157a3.1 3.1 0 0 1 1.525-.376c.6 0 1.14.15 1.62.451"/></g></g></svg>