<svg xmlns="http://www.w3.org/2000/svg" xmlns:xlink="http://www.w3.org/1999/xlink" width="120" height="120" viewBox="0 0 120 120"><path fill="none" stroke="#3D3E3E" stroke-miterlimit="10" d="M39.704 22.122l32.735 12.796 9.519-13.488-9.519 13.488 31.796 22.437-27.849 21.56 7.216 15.395-7.216-15.395-1.615-20.578-2.332-23.419-35.948 26.15 3.213-38.946-3.213 38.946-16.517-1.936"/><defs><path id="a" d="M-71.263-21.5h270v162h-270z"/></defs><clipPath id="b"><use xlink:href="#a" overflow="visible"/></clipPath><path clip-path="url(#b)" fill="none" stroke="#33212D" stroke-width="1.5" stroke-miterlimit="10" d="M103.717 56.988L83.785 94.052l-41.853 1.182-22.088-36.193s20.244-37.231 19.84-36.933c-.405.297 42.204-1.13 42.204-1.13l21.829 36.01z"/><path clip-path="url(#b)" fill="none" stroke="#33212D" stroke-width="1.5" stroke-miterlimit="10" d="M87.312 55.717l-3.527 38.334L51.51 81.386z"/><path clip-path="url(#b)" fill="none" stroke="#33212D" stroke-width="1.5" stroke-miterlimit="10" d="M39.684 22.108l7.529 15.227 4.297 44.05-9.577 13.848 9.577-13.848-31.666-22.344 27.369-21.706 40.099 18.382-40.099-18.382 34.675-16.356 5.424 34.738 16.405 1.271"/><path clip-path="url(#b)" fill="none" stroke="#3D3E3E" stroke-miterlimit="10" d="M76.386 78.915l-34.543 16.17-5.351-34.017z"/><g clip-path="url(#b)"><defs><path id="c" d="M35.093 59.543h2.797v2.797h-2.797z"/></defs><clipPath id="d"><use xlink:href="#c" overflow="visible"/></clipPath><g clip-path="url(#d)"><defs><path id="e" d="M35.093 59.543h2.797v2.797h-2.797z"/></defs><clipPath id="f"><use xlink:href="#e" overflow="visible"/></clipPath><path clip-path="url(#f)" fill="#3D3E3E" d="M36.495 59.543a1.399 1.399 0 1 1-.005 2.797 1.399 1.399 0 0 1 .005-2.797"/></g></g><g clip-path="url(#b)"><defs><path id="g" d="M70.981 33.535h2.922v2.923h-2.922z"/></defs><clipPath id="h"><use xlink:href="#g" overflow="visible"/></clipPath><g clip-path="url(#h)"><defs><path id="i" d="M70.981 33.535h2.922v2.923h-2.922z"/></defs><clipPath id="j"><use xlink:href="#i" overflow="visible"/></clipPath><path clip-path="url(#j)" fill="#3D3E3E" d="M72.445 33.535a1.461 1.461 0 1 1-.006 2.922 1.461 1.461 0 0 1 .006-2.922"/></g></g><g clip-path="url(#b)"><defs><path id="k" d="M75.356 77.756h2.381v2.381h-2.381z"/></defs><clipPath id="l"><use xlink:href="#k" overflow="visible"/></clipPath><g clip-path="url(#l)"><defs><path id="m" d="M75.356 77.756h2.381v2.381h-2.381z"/></defs><clipPath id="n"><use xlink:href="#m" overflow="visible"/></clipPath><path clip-path="url(#n)" fill="#3D3E3E" d="M76.549 77.756a1.19 1.19 0 1 1-.004 2.38 1.19 1.19 0 0 1 .004-2.38"/></g></g><g clip-path="url(#b)"><defs><path id="o" d="M40.48 93.606h2.905v2.816H40.48z"/></defs><clipPath id="p"><use xlink:href="#o" overflow="visible"/></clipPath><g clip-path="url(#p)"><defs><path id="q" d="M40.48 93.606h2.905v2.816H40.48z"/></defs><clipPath id="r"><use xlink:href="#q" overflow="visible"/></clipPath><path clip-path="url(#r)" fill="#33212D" d="M41.936 93.606c.8 0 1.449.63 1.449 1.412 0 .774-.649 1.404-1.449 1.404-.806 0-1.456-.63-1.456-1.404-.001-.782.65-1.412 1.456-1.412"/></g></g><g clip-path="url(#b)"><defs><path id="s" d="M82.27 92.393h2.948v2.947H82.27z"/></defs><clipPath id="t"><use xlink:href="#s" overflow="visible"/></clipPath><g clip-path="url(#t)"><defs><path id="u" d="M82.27 92.393h2.948v2.947H82.27z"/></defs><clipPath id="v"><use xlink:href="#u" overflow="visible"/></clipPath><path clip-path="url(#v)" fill="#33212D" d="M83.746 92.393c.812 0 1.47.658 1.47 1.477a1.47 1.47 0 0 1-1.47 1.47 1.473 1.473 0 1 1 0-2.947"/></g></g><g clip-path="url(#b)"><defs><path id="w" d="M102.211 55.578h2.948v2.947h-2.948z"/></defs><clipPath id="x"><use xlink:href="#w" overflow="visible"/></clipPath><g clip-path="url(#x)"><defs><path id="y" d="M102.211 55.578h2.948v2.947h-2.948z"/></defs><clipPath id="z"><use xlink:href="#y" overflow="visible"/></clipPath><path clip-path="url(#z)" fill="#33212D" d="M103.688 55.578a1.473 1.473 0 0 1 0 2.948 1.474 1.474 0 1 1 0-2.948"/></g></g><g clip-path="url(#b)"><defs><path id="A" d="M80.589 19.43h2.947v2.947h-2.947z"/></defs><clipPath id="B"><use xlink:href="#A" overflow="visible"/></clipPath><g clip-path="url(#B)"><defs><path id="C" d="M80.589 19.43h2.947v2.947h-2.947z"/></defs><clipPath id="D"><use xlink:href="#C" overflow="visible"/></clipPath><path clip-path="url(#D)" fill="#33212D" d="M82.066 19.43c.811 0 1.47.659 1.47 1.477a1.473 1.473 0 1 1-1.47-1.477"/></g></g><g clip-path="url(#b)"><defs><path id="E" d="M38.118 20.686h2.947v2.947h-2.947z"/></defs><clipPath id="F"><use xlink:href="#E" overflow="visible"/></clipPath><g clip-path="url(#F)"><defs><path id="G" d="M38.118 20.686h2.947v2.947h-2.947z"/></defs><clipPath id="H"><use xlink:href="#G" overflow="visible"/></clipPath><path clip-path="url(#H)" fill="#33212D" d="M39.595 20.686c.811 0 1.47.659 1.47 1.477 0 .811-.659 1.47-1.47 1.47a1.473 1.473 0 1 1 0-2.947"/></g></g><g clip-path="url(#b)"><defs><path id="I" d="M18.579 57.504h2.947v2.947h-2.947z"/></defs><clipPath id="J"><use xlink:href="#I" overflow="visible"/></clipPath><g clip-path="url(#J)"><defs><path id="K" d="M18.579 57.504h2.947v2.947h-2.947z"/></defs><clipPath id="L"><use xlink:href="#K" overflow="visible"/></clipPath><path clip-path="url(#L)" fill="#33212D" d="M20.056 57.504a1.474 1.474 0 1 1-.005 2.947 1.474 1.474 0 0 1 .005-2.947"/></g></g><g clip-path="url(#b)"><defs><path id="M" d="M86.13 54.119h3.25v3.249h-3.25z"/></defs><clipPath id="N"><use xlink:href="#M" overflow="visible"/></clipPath><g clip-path="url(#N)"><defs><path id="O" d="M86.13 54.119h3.25v3.249h-3.25z"/></defs><clipPath id="P"><use xlink:href="#O" overflow="visible"/></clipPath><path clip-path="url(#P)" fill="#33212D" d="M87.759 54.119a1.624 1.624 0 1 1-.006 3.248 1.624 1.624 0 0 1 .006-3.248"/></g></g><g clip-path="url(#b)"><defs><path id="Q" d="M49.786 79.934h3.249v3.25h-3.249z"/></defs><clipPath id="R"><use xlink:href="#Q" overflow="visible"/></clipPath><g clip-path="url(#R)"><defs><path id="S" d="M49.786 79.934h3.249v3.25h-3.249z"/></defs><clipPath id="T"><use xlink:href="#S" overflow="visible"/></clipPath><path clip-path="url(#T)" fill="#33212D" d="M51.414 79.934a1.625 1.625 0 1 1-.007 3.25 1.625 1.625 0 0 1 .007-3.25"/></g></g><g clip-path="url(#b)"><defs><path id="U" d="M45.395 35.172h3.28v3.281h-3.28z"/></defs><clipPath id="V"><use xlink:href="#U" overflow="visible"/></clipPath><g clip-path="url(#V)"><defs><path id="W" d="M45.395 35.172h3.28v3.281h-3.28z"/></defs><clipPath id="X"><use xlink:href="#W" overflow="visible"/></clipPath><path clip-path="url(#X)" fill="#33212D" d="M47.038 35.172a1.64 1.64 0 1 1-.008 3.282 1.64 1.64 0 0 1 .008-3.282"/></g></g></svg>